<?xml version="1.0" standalone="no"?>
<!DOCTYPE svg PUBLIC "-//W3C//DTD SVG 20010904//EN"
 "http://www.w3.org/TR/2001/REC-SVG-20010904/DTD/svg10.dtd">
<svg version="1.0" xmlns="http://www.w3.org/2000/svg"
 width="302.000000pt" height="302.000000pt" viewBox="0 0 302.000000 302.000000"
 preserveAspectRatio="xMidYMid meet">
<metadata>
Created by potrace 1.16, written by Peter Selinger 2001-2019
</metadata>
<g transform="translate(0.000000,302.000000) scale(0.100000,-0.100000)"
fill="#000000" stroke="none">
<path d="M40 1510 l0 -1480 1480 0 1480 0 0 1480 0 1480 -1480 0 -1480 0 0
-1480z m2898 -2 l-3 -1413 -1415 0 -1415 0 -3 1413 -2 1412 1420 0 1420 0 -2
-1412z"/>
<path d="M1355 2596 c-167 -41 -302 -156 -336 -286 -19 -74 -6 -126 61 -231
33 -51 60 -98 60 -105 0 -24 -32 -44 -70 -44 -30 0 -48 8 -75 32 -39 34 -75
95 -75 128 0 12 -7 20 -16 20 -40 0 28 -146 85 -182 61 -39 89 -48 159 -48
116 0 215 65 243 159 16 53 1 104 -63 218 -102 181 -104 244 -8 293 52 26 64
25 45 -3 -27 -41 -30 -108 -7 -154 20 -38 66 -81 107 -98 11 -5 108 -11 215
-15 173 -6 201 -9 247 -29 114 -50 177 -163 178 -316 0 -82 -3 -96 -33 -157
-38 -78 -86 -121 -150 -138 -89 -22 -173 4 -392 120 -91 48 -183 93 -204 100
-55 17 -142 7 -209 -24 -91 -43 -217 -170 -217 -218 0 -25 17 -23 24 5 11 44
49 78 92 84 55 7 124 -27 236 -116 48 -38 102 -78 120 -89 74 -46 261 -66 380
-41 83 18 157 59 224 124 111 110 163 230 171 395 9 186 -51 352 -170 473
-120 121 -222 158 -441 156 -72 0 -153 -6 -181 -13z"/>
<path d="M604 1082 c-73 -26 -126 -72 -165 -144 -33 -61 -34 -67 -34 -173 0
-95 3 -116 23 -152 59 -111 134 -158 252 -157 172 0 279 116 288 309 5 107 -7
156 -52 222 -64 93 -201 135 -312 95z m146 -59 c54 -37 86 -107 97 -208 7 -68
-13 -190 -39 -236 -38 -68 -125 -89 -188 -46 -123 82 -127 414 -7 487 40 25
104 26 137 3z"/>
<path d="M1140 1091 c-67 -4 -95 -10 -94 -18 1 -7 2 -20 3 -28 1 -10 12 -15
31 -15 l30 0 0 -255 c0 -245 -1 -255 -19 -255 -35 0 -51 -12 -51 -36 l0 -24
145 0 145 0 0 25 c0 25 -10 31 -70 37 -24 3 -25 5 -28 96 l-3 92 73 0 c152 1
238 76 238 207 0 79 -23 121 -84 152 -53 27 -147 33 -316 22z m236 -70 c20
-12 37 -34 44 -56 15 -44 7 -118 -16 -153 -18 -28 -71 -52 -113 -52 -61 0 -61
0 -61 146 l0 134 58 0 c39 0 67 -6 88 -19z"/>
<path d="M2403 1091 c-93 -24 -149 -85 -147 -161 2 -76 42 -117 197 -206 88
-51 121 -91 112 -139 -8 -48 -50 -75 -117 -75 -81 0 -103 13 -129 77 -18 44
-26 53 -43 51 -19 -3 -21 -10 -24 -75 l-3 -71 38 -13 c22 -8 84 -14 148 -14
92 0 116 3 150 21 60 31 85 74 85 147 0 55 -2 62 -37 96 -21 21 -81 63 -135
94 -53 31 -106 69 -117 83 -48 61 -12 132 71 141 63 7 96 -10 116 -57 14 -33
22 -40 45 -40 26 0 27 1 27 60 l0 59 -37 10 c-57 14 -164 21 -200 12z"/>
<path d="M1560 1065 c0 -20 6 -25 34 -31 l35 -6 3 -211 c3 -198 5 -215 26
-254 30 -57 84 -91 164 -105 127 -21 227 24 271 121 19 41 21 69 25 247 l4
202 29 6 c23 4 29 11 29 31 l0 25 -105 0 c-105 0 -105 0 -105 -25 0 -20 6 -25
36 -31 l35 -6 -3 -207 c-3 -186 -5 -209 -23 -241 -40 -68 -140 -89 -204 -43
-57 42 -66 79 -69 294 l-4 196 36 7 c30 6 36 11 36 31 l0 25 -125 0 -125 0 0
-25z"/>
</g>
</svg>
